/vscmnt/brussel_pixiu_data/_data_brussel/112/vsc11236/PredSimResults/SUBJ04mtu3D/weighted-LRposFixed/expIG/worker_03.mot
version=1
nRows=8
nColumns=50
inDegrees=yes
endheader
                time	         pelvis_tilt	         pelvis_list	     pelvis_rotation	           pelvis_tx	           pelvis_ty	           pelvis_tz	       hip_flexion_r	     hip_adduction_r	      hip_rotation_r	        knee_angle_r	       ankle_angle_r	         mtp_angle_r	       hip_flexion_l	     hip_adduction_l	      hip_rotation_l	        knee_angle_l	       ankle_angle_l	         mtp_angle_l	    lumbar_extension	      lumbar_bending	     lumbar_rotation	 ercspn_r/activation	 intobl_r/activation	 extobl_r/activation	    abd_r/activation	    add_r/activation	hamstrings_r/activation	bifemsh_r/activation	glut_max_r/activation	iliopsoas_r/activation	rect_fem_r/activation	  vasti_r/activation	gastroc_r/activation	 soleus_r/activation	tib_ant_r/activation	 ercspn_l/activation	 intobl_l/activation	 extobl_l/activation	    abd_l/activation	    add_l/activation	hamstrings_l/activation	bifemsh_l/activation	glut_max_l/activation	iliopsoas_l/activation	rect_fem_l/activation	  vasti_l/activation	gastroc_l/activation	 soleus_l/activation	tib_ant_l/activation	
          1.41232359	         -5.79967712	         -4.93169741	         12.47319929	          1.20047505	          0.88387950	         -0.02266208	         24.88538444	          0.33029096	         -5.20271081	          2.19868700	          5.36107820	          0.21372657	         -7.61296833	         -4.29880065	         15.79841665	         -7.87321838	         12.94474794	         21.61331810	         -2.49089770	          1.70834151	         -1.08196961	          0.09462792	          0.15547667	          0.02241468	          0.02712104	          0.10284697	          0.02493003	          0.01000001	          0.00999999	          0.06076611	          0.01488706	          0.02410035	          0.00999999	          0.00999999	          0.26681427	          0.02864480	          0.00999999	          0.00999999	          0.09473353	          0.00999999	          0.01979664	          0.14574940	          0.07685017	          0.34058450	          0.00999999	          0.00999999	          0.31356050	          0.27624396	          0.01526180	
          1.42644683	         -5.92411993	         -4.81619010	         12.37191712	          1.21513372	          0.88192787	         -0.02155702	         24.57863745	          0.58730399	         -4.03535141	          1.55897246	          5.02051044	          0.21941787	         -7.85564372	         -4.17128190	         15.01142383	         -9.11287362	         12.83175079	         23.23338417	         -2.20540873	          1.99763423	         -1.33014040	          0.07659778	          0.15174402	          0.01814385	          0.02195347	          0.13161428	          0.02352043	          0.01000000	          0.01000000	          0.04918791	          0.01205053	          0.01950834	          0.01526181	          0.01559212	          0.26738484	          0.05305740	          0.00999999	          0.00999999	          0.07668327	          0.01951713	          0.01694399	          0.11797871	          0.06702359	          0.30962395	          0.00999999	          0.00999999	          0.29304940	          0.27485015	          0.01235386	
          1.44057006	         -6.03149558	         -4.69009178	         12.20441315	          1.23019526	          0.88011926	         -0.02035208	         24.13273141	          0.85202731	         -2.91189291	          0.89995672	          4.63562630	          0.21183316	         -8.04285411	         -4.01497519	         14.16719700	        -10.54483315	         12.60288166	         24.91507277	         -1.90232657	          2.29826305	         -1.57147026	          0.06629418	          0.16447744	          0.01468677	          0.02305830	          0.10653686	          0.02897844	          0.04391583	          0.02147476	          0.03981578	          0.00999999	          0.01579127	          0.01235386	          0.01262124	          0.30191965	          0.07254602	          0.00999999	          0.00999999	          0.06207225	          0.03690517	          0.01453669	          0.09549938	          0.05425310	          0.27241968	          0.00999999	          0.00999999	          0.26800850	          0.26649879	          0.00999999	
          1.45469330	         -6.12257530	         -4.56149935	         11.95930336	          1.24545941	          0.87866743	         -0.01903855	         23.56252131	          1.13446441	         -1.85821227	          0.46019649	          4.10934145	          0.19914373	         -8.11108666	         -3.82775907	         13.27158674	        -12.24506356	         12.20078724	         26.65078031	         -1.60147545	          2.62182270	         -1.80348169	          0.07006372	          0.14858572	          0.01188839	          0.04661319	          0.08623763	          0.03010541	          0.03554824	          0.03321757	          0.03222939	          0.00999999	          0.01278245	          0.00999999	          0.01021642	          0.32803313	          0.09638358	          0.00999999	          0.00999999	          0.05024518	          0.03748169	          0.01439137	          0.07730319	          0.04391587	          0.22952992	          0.01000000	          0.00999999	          0.23537992	          0.24977882	          0.00999999	
          1.46881653	         -6.19728690	         -4.43068739	         11.63546743	          1.26077390	          0.87775634	         -0.01763277	         22.92165623	          1.43448048	         -0.88193319	          0.11083976	          3.62979945	          0.18477787	         -8.02576704	         -3.60759526	         12.31565102	        -14.23725489	         11.56242132	         28.40656399	         -1.31446385	          2.96977867	         -2.02368344	          0.06662185	          0.12309307	          0.00999999	          0.06607454	          0.07097703	          0.03421398	          0.02877498	          0.03885991	          0.02608849	          0.00999999	          0.01898148	          0.00999999	          0.00999999	          0.35083719	          0.11442215	          0.00999999	          0.00999999	          0.04067160	          0.03825327	          0.01560653	          0.06257406	          0.03554826	          0.19888362	          0.01000000	          0.00999999	          0.19053128	          0.22214500	          0.00999999	
          1.48293977	         -6.25550932	         -4.29453453	         11.23713143	          1.27603970	          0.87746349	         -0.01615306	         22.22970288	          1.74253734	          0.01743293	         -0.19344449	          3.26813882	          0.17135312	         -7.77187751	         -3.35490541	         11.28702424	        -16.52097331	         10.67226693	         30.08631939	         -1.04688561	          3.33499873	         -2.22794316	          0.06074274	          0.09963925	          0.00999999	          0.08659321	          0.06835982	          0.03835396	          0.02329227	          0.03551327	          0.02111766	          0.00999999	          0.02525596	          0.00999999	          0.00999999	          0.36188702	          0.12696276	          0.00999999	          0.00999999	          0.03292215	          0.04640775	          0.02033416	          0.05065137	          0.02877499	          0.17839948	          0.00999999	          0.00999999	          0.15422798	          0.17981811	          0.00999999	
          1.49706301	         -6.29731569	         -4.14731909	         10.77044316	          1.29116317	          0.87777473	         -0.01462028	         21.49470774	          2.04401343	          0.84438088	         -0.46490666	          3.04890003	          0.16068627	         -7.33724842	         -3.06979371	         10.16912450	        -19.09692241	          9.56619804	         31.52673496	         -0.80559693	          3.70726126	         -2.41320587	          0.05131423	          0.08065427	          0.00999999	          0.10540756	          0.06606370	          0.04084815	          0.01885423	          0.02973139	          0.01709396	          0.00999999	          0.02851402	          0.00999999	          0.00999999	          0.36003515	          0.13750633	          0.00999999	          0.00999999	          0.02664925	          0.05950853	          0.02567909	          0.04100040	          0.02329228	          0.16049177	          0.00999999	          0.00999999	          0.12484181	          0.14555606	          0.00999999	
          1.51118624	         -6.32342904	         -3.97870199	         10.24146296	          1.30604932	          0.87865681	         -0.01305539	         20.71720667	          2.32000487	          1.60419467	         -0.69249248	          2.95768106	          0.15369365	         -6.71403995	         -2.75266867	          8.94054029	        -21.95189885	          8.29705172	         32.51523899	         -0.59940842	          4.07180587	         -2.57827354	          0.04582312	          0.06528663	          0.00999999	          0.11316220	          0.05347611	          0.04310779	          0.01526180	          0.02642401	          0.01383693	          0.00999999	          0.02612948	          0.00999999	          0.00999999	          0.34992760	          0.13969127	          0.00999999	          0.00999999	          0.02157158	          0.06979674	          0.03024373	          0.04112741	          0.01885424	          0.14374830	          0.00999999	          0.00999999	          0.10105480	          0.11782222	          0.00999999	
